<svg width="98" height="98" viewBox="0 0 98 98" fill="none" xmlns="http://www.w3.org/2000/svg">
<rect width="98" height="98" rx="28" fill="#FF8000"/>
<path d="M63.9134 25.0668C66.9843 25.0668 69.4738 22.5773 69.4738 19.5063C69.4738 16.4354 66.9843 13.9459 63.9134 13.9459C60.8424 13.9459 58.3529 16.4354 58.3529 19.5063C58.3529 22.5773 60.8424 25.0668 63.9134 25.0668Z" fill="white"/>
<path d="M58.1149 55.8846C63.9374 53.0739 66.7684 48.534 66.7684 42.0102C66.7684 32.9452 60.8167 23.1862 47.7598 23.1862C38.4955 23.1862 28.5262 29.077 28.5262 42.0102C28.5262 47.6685 30.3421 52.4021 33.7766 55.6963C37.176 58.9555 42.0112 60.6792 47.7598 60.6792C54.3279 60.6792 58.5578 63.584 58.5578 68.4505C58.5578 73.2008 53.2428 75.9949 47.6159 75.9949C41.989 75.9949 36.9361 73.0771 36.757 67.668C36.7556 67.5791 36.7195 67.4942 36.6564 67.4315C36.5933 67.3687 36.5083 67.3331 36.4193 67.3321H28.9857C28.8972 67.3311 28.812 67.3651 28.7484 67.4266C28.6848 67.4881 28.6481 67.5722 28.6461 67.6606C28.6258 72.2744 30.093 76.2052 32.8907 79.0048C36.1905 82.3083 41.2785 84.0541 47.6067 84.0541C56.8341 84.0541 66.7684 79.1709 66.7684 68.4505C66.7684 64.5067 65.2717 59.2323 58.1407 56.5047C58.079 56.4811 58.0255 56.44 57.9869 56.3865C57.9483 56.3329 57.9263 56.2691 57.9235 56.2031C57.9208 56.1371 57.9374 56.0718 57.9715 56.0152C58.0055 55.9586 58.0553 55.9131 58.1149 55.8846ZM47.7506 52.5848C41.2342 52.5848 36.6777 48.1557 36.6777 41.8238C36.6777 35.2409 41.0238 30.9871 47.7506 30.9871C54.0382 30.9871 58.6021 35.5436 58.6021 41.8238C58.6002 48.1594 54.1379 52.5848 47.7488 52.5848H47.7506Z" fill="white"/>
</svg>
