<svg width="200" height="71" viewBox="0 0 200 71" fill="none" xmlns="http://www.w3.org/2000/svg">
<path d="M112.099 11.1209C115.17 11.1209 117.659 8.63141 117.659 5.56046C117.659 2.4895 115.17 0 112.099 0C109.028 0 106.538 2.4895 106.538 5.56046C106.538 8.63141 109.028 11.1209 112.099 11.1209Z" fill="#030712"/>
<path d="M197.305 10.0358H190.107C190.066 10.037 190.024 10.0469 189.987 10.065C189.949 10.083 189.915 10.1088 189.888 10.1406C189.861 10.1724 189.84 10.2095 189.828 10.2496C189.816 10.2897 189.813 10.3319 189.818 10.3735L189.478 13.389C189.479 13.4535 189.461 13.5169 189.427 13.5717C189.393 13.6265 189.344 13.6704 189.286 13.6981C189.227 13.7259 189.162 13.7364 189.098 13.7284C189.034 13.7204 188.974 13.6942 188.924 13.6529C187.633 12.6139 186.177 11.4586 184.711 10.8256C182.495 9.86754 180.113 9.3504 177.698 9.3031H177.388C175.061 9.30726 172.755 9.74536 170.588 10.5949C168.308 11.4808 166.195 13.1473 164.479 14.8174C162.724 16.5313 161.325 18.5753 160.362 20.8319C158.919 24.2415 158.54 28.0077 159.274 31.6366C160.009 35.2655 161.823 38.5876 164.479 41.1673C166.195 42.8375 168.308 44.5021 170.591 45.399C172.857 46.2814 175.271 46.7164 177.702 46.6798C180.116 46.6326 182.498 46.1161 184.715 45.1591C186.191 44.5261 187.581 43.369 188.878 42.33C188.926 42.2919 188.984 42.2674 189.044 42.2589C189.105 42.2505 189.167 42.2584 189.223 42.282C189.28 42.3055 189.328 42.3438 189.364 42.3929C189.401 42.442 189.423 42.5 189.428 42.5606L189.707 45.2901C189.715 45.3738 189.754 45.4514 189.817 45.5077C189.879 45.564 189.961 45.595 190.045 45.5946H197.308C197.398 45.5946 197.484 45.559 197.547 45.4957C197.611 45.4324 197.646 45.3465 197.646 45.2569V10.3772C197.646 10.3323 197.638 10.2878 197.621 10.2462C197.604 10.2047 197.579 10.167 197.547 10.1352C197.515 10.1035 197.477 10.0783 197.436 10.0612C197.394 10.0442 197.35 10.0355 197.305 10.0358ZM177.94 38.711C175.798 38.7051 173.706 38.0646 171.927 36.8704C170.149 35.6761 168.764 33.9817 167.948 32.001C167.132 30.0203 166.921 27.8423 167.343 25.7419C167.764 23.6415 168.798 21.713 170.314 20.2C171.831 18.6869 173.761 17.6571 175.863 17.2407C177.964 16.8242 180.141 17.0398 182.12 17.8602C184.099 18.6805 185.791 20.0689 186.981 21.8499C188.171 23.6309 188.807 25.7247 188.808 27.8669C188.803 30.7454 187.655 33.5041 185.618 35.5373C183.58 37.5705 180.819 38.7119 177.94 38.711Z" fill="#030712"/>
<path d="M149.507 14.4797C147.859 12.8741 145.864 11.3571 143.734 10.5064C139.413 8.77446 134.582 8.82489 130.299 10.6466C129.319 11.0637 128.361 11.8019 127.451 12.4091C127.402 12.4418 127.344 12.461 127.285 12.4647C127.226 12.4683 127.167 12.4564 127.113 12.4301C127.06 12.4038 127.015 12.3639 126.982 12.3146C126.949 12.2652 126.929 12.2081 126.925 12.1489L126.726 10.3218C126.714 10.2418 126.673 10.1689 126.611 10.1164C126.55 10.0639 126.471 10.0353 126.39 10.0358H119.35C119.26 10.0363 119.175 10.072 119.111 10.1352C119.048 10.1984 119.012 10.2841 119.012 10.3735V45.2532C119.012 45.2976 119.021 45.3415 119.038 45.3825C119.055 45.4234 119.079 45.4607 119.111 45.492C119.142 45.5234 119.179 45.5483 119.22 45.5652C119.261 45.5822 119.305 45.5909 119.35 45.5909H126.839C126.928 45.5909 127.014 45.5554 127.078 45.4921C127.142 45.4289 127.178 45.343 127.178 45.2532C127.178 45.2532 127.163 23.9434 127.178 23.9065C127.732 22.3876 128.4 21.2323 129.546 20.138C131.548 18.2268 134.223 17.1817 136.991 17.2295C139.707 17.2793 141.973 18.4235 143.845 20.3668C145.705 22.296 146.723 24.8847 146.676 27.5642V45.2624C146.676 45.3063 146.685 45.3497 146.702 45.39C146.719 45.4304 146.744 45.4669 146.776 45.4975C146.807 45.5281 146.844 45.5521 146.885 45.5681C146.926 45.5842 146.97 45.5919 147.013 45.5909H154.502C154.687 45.5909 154.84 45.3658 154.84 45.1794V26.9441C154.815 24.6164 154.33 22.3165 153.415 20.1763C152.499 18.0361 151.169 16.0978 149.503 14.4723L149.507 14.4797Z" fill="#030712"/>
<path d="M18.8037 17.0302C20.4482 17.0273 22.0723 17.394 23.556 18.1032C25.0398 18.8123 26.3453 19.8457 27.376 21.1272C27.4298 21.1925 27.5066 21.2349 27.5907 21.2455C27.6747 21.2562 27.7597 21.2343 27.8281 21.1844L33.6396 17.0615C33.6762 17.0354 33.7072 17.0022 33.7306 16.9638C33.7541 16.9255 33.7696 16.8827 33.7761 16.8382C33.7833 16.7915 33.7807 16.7438 33.7687 16.6981C33.7566 16.6524 33.7353 16.6096 33.706 16.5725C31.94 14.302 29.6805 12.4633 27.0986 11.1955C24.5166 9.92772 21.68 9.26417 18.8037 9.25513C8.43573 9.25513 0 17.6613 0 27.9924C0 38.3234 8.43573 46.7278 18.8037 46.7278C21.6798 46.7187 24.5162 46.0553 27.0981 44.7878C29.68 43.5204 31.9396 41.6821 33.706 39.4122C33.7352 39.3747 33.7565 39.3317 33.7686 39.2857C33.7806 39.2397 33.7832 39.1917 33.7761 39.1446C33.7696 39.1001 33.7541 39.0574 33.7306 39.0191C33.7072 38.9807 33.6762 38.9475 33.6396 38.9213L27.8281 34.7985C27.7591 34.7497 27.6743 34.7286 27.5905 34.7396C27.5067 34.7505 27.4301 34.7927 27.376 34.8576C25.2703 37.4634 22.1459 38.711 18.8037 38.711C12.7376 38.711 8.16628 34.0363 8.16628 27.9924C8.16628 21.9484 12.7339 17.0302 18.8037 17.0302Z" fill="#030712"/>
<path d="M106.3 41.9387C112.123 39.128 114.954 34.5881 114.954 28.0643C114.954 18.9993 109.002 9.24036 95.9451 9.24036C86.6807 9.24036 76.7114 15.1312 76.7114 28.0643C76.7114 33.7226 78.5274 38.4563 81.9618 41.7505C85.3612 45.0096 90.1964 46.7333 95.9451 46.7333C102.513 46.7333 106.743 49.6381 106.743 54.5046C106.743 59.2549 101.428 62.049 95.8011 62.049C90.1742 62.049 85.1213 59.1313 84.9423 53.7222C84.9408 53.6332 84.9047 53.5483 84.8417 53.4856C84.7786 53.4229 84.6935 53.3872 84.6045 53.3863H77.1709C77.0825 53.3853 76.9972 53.4192 76.9336 53.4807C76.87 53.5422 76.8333 53.6263 76.8314 53.7148C76.8111 58.3285 78.2782 62.2594 81.076 65.059C84.3757 68.3624 89.4637 70.1082 95.7919 70.1082C105.019 70.1082 114.954 65.2251 114.954 54.5046C114.954 50.5608 113.457 45.2864 106.326 42.5588C106.264 42.5353 106.211 42.4942 106.172 42.4406C106.134 42.387 106.112 42.3233 106.109 42.2573C106.106 42.1913 106.123 42.1259 106.157 42.0693C106.191 42.0127 106.241 41.9673 106.3 41.9387ZM95.9358 38.639C89.4194 38.639 84.8629 34.2098 84.8629 27.8779C84.8629 21.2951 89.209 17.0412 95.9358 17.0412C102.223 17.0412 106.787 21.5977 106.787 27.8779C106.785 34.2135 102.323 38.639 95.934 38.639H95.9358Z" fill="#030712"/>
<path d="M53.8366 9.25513C43.4668 9.25513 35.0329 17.6613 35.0329 27.9924C35.0329 38.3234 43.4668 46.7278 53.8366 46.7278C64.2064 46.7278 72.6403 38.3234 72.6403 27.9924C72.6403 17.6613 64.2046 9.25513 53.8366 9.25513ZM53.8366 38.5984C51.0212 38.6008 48.3198 37.4863 46.3252 35.4993C44.3306 33.5123 43.2057 30.8152 43.1974 27.9997C43.1974 22.1551 47.9698 17.0431 53.8366 17.0431C59.7034 17.0431 64.474 22.1551 64.474 27.9997C64.4637 30.8136 63.3383 33.5085 61.3443 35.4939C59.3503 37.4792 56.6504 38.593 53.8366 38.591V38.5984Z" fill="#030712"/>
<path d="M120.46 57.8344V49.6623H121.172L124.908 56.0365H124.534L128.235 49.6623H128.947V57.8344H128.119V50.9581H128.317L124.908 56.7953H124.499L121.067 50.9581H121.289V57.8344H120.46ZM133.455 57.8344L137.19 49.6623H138.043L141.779 57.8344H140.868L137.436 50.1643H137.786L134.354 57.8344H133.455ZM134.926 55.6512L135.182 54.9508H139.934L140.191 55.6512H134.926ZM146.282 57.8344V49.6623H149.341C150.034 49.6623 150.629 49.7751 151.127 50.0008C151.625 50.2187 152.007 50.5378 152.271 50.9581C152.544 51.3706 152.68 51.8726 152.68 52.4641C152.68 53.0401 152.544 53.5382 152.271 53.9584C152.007 54.3709 151.625 54.69 151.127 54.9157C150.629 55.1337 150.034 55.2426 149.341 55.2426H146.761L147.146 54.8457V57.8344H146.282ZM151.863 57.8344L149.761 54.8691H150.695L152.808 57.8344H151.863ZM147.146 54.9157L146.761 54.5071H149.318C150.135 54.5071 150.754 54.3281 151.174 53.9701C151.602 53.6121 151.816 53.1101 151.816 52.4641C151.816 51.8104 151.602 51.3045 151.174 50.9465C150.754 50.5884 150.135 50.4094 149.318 50.4094H146.761L147.146 50.0008V54.9157ZM159.345 57.8344V50.4094H156.473V49.6623H163.081V50.4094H160.209V57.8344H159.345ZM168.383 53.3164H172.703V54.0518H168.383V53.3164ZM168.477 57.0872H173.392V57.8344H167.613V49.6623H173.217V50.4094H168.477V57.0872ZM182.101 57.9044C181.486 57.9044 180.918 57.8032 180.396 57.6009C179.875 57.3907 179.423 57.0989 179.042 56.7253C178.661 56.3517 178.361 55.912 178.143 55.4061C177.933 54.9002 177.828 54.3476 177.828 53.7483C177.828 53.149 177.933 52.5964 178.143 52.0905C178.361 51.5847 178.661 51.1449 179.042 50.7713C179.431 50.3978 179.886 50.1098 180.408 49.9074C180.929 49.6973 181.498 49.5922 182.112 49.5922C182.704 49.5922 183.26 49.6934 183.782 49.8958C184.303 50.0903 184.743 50.3861 185.101 50.783L184.552 51.3317C184.218 50.9893 183.848 50.7441 183.443 50.5962C183.039 50.4406 182.603 50.3627 182.136 50.3627C181.645 50.3627 181.19 50.4483 180.77 50.6196C180.35 50.783 179.984 51.0204 179.672 51.3317C179.361 51.6352 179.116 51.9933 178.937 52.4058C178.766 52.8105 178.68 53.258 178.68 53.7483C178.68 54.2386 178.766 54.69 178.937 55.1025C179.116 55.5073 179.361 55.8653 179.672 56.1766C179.984 56.4801 180.35 56.7175 180.77 56.8887C181.19 57.0522 181.645 57.1339 182.136 57.1339C182.603 57.1339 183.039 57.0561 183.443 56.9004C183.848 56.7447 184.218 56.4957 184.552 56.1532L185.101 56.7019C184.743 57.0989 184.303 57.3985 183.782 57.6009C183.26 57.8032 182.7 57.9044 182.101 57.9044ZM196.072 49.6623H196.924V57.8344H196.072V49.6623ZM190.959 57.8344H190.095V49.6623H190.959V57.8344ZM196.154 54.0635H190.865V53.3047H196.154V54.0635Z" fill="#030712"/>
</svg>
